<svg xmlns="http://www.w3.org/2000/svg" xmlns:xlink="http://www.w3.org/1999/xlink" width="1440" height="686" viewBox="0 0 1440 686">
  <defs>
    <clipPath id="clip-path">
      <rect id="Retângulo_1586" data-name="Retângulo 1586" width="1440" height="686" transform="translate(0 1977)" fill="#efef18"/>
    </clipPath>
  </defs>
  <g id="Grupo_de_máscara_2" data-name="Grupo de máscara 2" transform="translate(0 -1977)" opacity="0.1" clip-path="url(#clip-path)">
    <g id="Grupo_221" data-name="Grupo 221" transform="translate(56.955 1889.342)">
      <g id="Grupo_219" data-name="Grupo 219" transform="translate(-53.026 42.227)" opacity="0.15">
        <g id="Grupo_216" data-name="Grupo 216" transform="translate(0 2.152)">
          <circle id="Elipse_26" data-name="Elipse 26" cx="6.574" cy="6.574" r="6.574" transform="translate(686.578 264.528)" fill="#666"/>
          <circle id="Elipse_27" data-name="Elipse 27" cx="6.574" cy="6.574" r="6.574" transform="translate(42.994 93.466)" fill="#666"/>
          <circle id="Elipse_28" data-name="Elipse 28" cx="6.574" cy="6.574" r="6.574" transform="translate(42.337 38.79)" fill="#666"/>
          <circle id="Elipse_29" data-name="Elipse 29" cx="6.574" cy="6.574" r="6.574" transform="translate(666.96)" fill="#666"/>
          <circle id="Elipse_30" data-name="Elipse 30" cx="6.574" cy="6.574" r="6.574" transform="translate(974.515 137.324)" fill="#666"/>
          <circle id="Elipse_31" data-name="Elipse 31" cx="6.574" cy="6.574" r="6.574" transform="translate(1084.956 73.885)" fill="#666"/>
          <circle id="Elipse_32" data-name="Elipse 32" cx="6.574" cy="6.574" r="6.574" transform="translate(801.621 32.873)" fill="#666"/>
          <circle id="Elipse_33" data-name="Elipse 33" cx="6.574" cy="6.574" r="6.574" transform="translate(384.179 256.311)" fill="#666"/>
          <circle id="Elipse_34" data-name="Elipse 34" cx="6.574" cy="6.574" r="6.574" transform="translate(361.171 166.335)" fill="#666"/>
          <circle id="Elipse_35" data-name="Elipse 35" cx="6.574" cy="6.574" r="6.574" transform="translate(367.744 463.566)" fill="#666"/>
          <circle id="Elipse_36" data-name="Elipse 36" cx="6.574" cy="6.574" r="6.574" transform="translate(173.815 319.42)" fill="#666"/>
          <circle id="Elipse_37" data-name="Elipse 37" cx="6.574" cy="6.574" r="6.574" transform="translate(43.956 519.308)" fill="#666"/>
          <circle id="Elipse_38" data-name="Elipse 38" cx="6.574" cy="6.574" r="6.574" transform="translate(42.665 377.271)" fill="#666"/>
          <circle id="Elipse_39" data-name="Elipse 39" cx="6.574" cy="6.574" r="6.574" transform="translate(0 572.688)" fill="#666"/>
          <circle id="Elipse_40" data-name="Elipse 40" cx="6.574" cy="6.574" r="6.574" transform="translate(45.624 270.86)" fill="#666"/>
          <circle id="Elipse_41" data-name="Elipse 41" cx="6.574" cy="6.574" r="6.574" transform="translate(42.994 227.166)" fill="#666"/>
        </g>
        <g id="Grupo_218" data-name="Grupo 218" transform="translate(6.574)">
          <path id="Caminho_389" data-name="Caminho 389" d="M805.947,923.553a7.231,7.231,0,1,1-7.231,7.231A7.239,7.239,0,0,1,805.947,923.553Zm0,13.148a5.917,5.917,0,1,0-5.916-5.917A5.923,5.923,0,0,0,805.947,936.7Z" transform="translate(-302.499 -350.027)" fill="#666"/>
          <path id="Caminho_390" data-name="Caminho 390" d="M1166.519,557.289a7.231,7.231,0,1,1-7.231,7.231A7.24,7.24,0,0,1,1166.519,557.289Zm0,13.148a5.916,5.916,0,1,0-5.917-5.917A5.923,5.923,0,0,0,1166.519,570.437Z" transform="translate(-426.035 -224.541)" fill="#666"/>
          <path id="Caminho_391" data-name="Caminho 391" d="M894.519,385.289a7.231,7.231,0,1,1-7.231,7.231A7.24,7.24,0,0,1,894.519,385.289Zm0,13.148a5.917,5.917,0,1,0-5.917-5.917A5.923,5.923,0,0,0,894.519,398.437Z" transform="translate(-332.845 -165.612)" fill="#666"/>
          <path id="Caminho_392" data-name="Caminho 392" d="M225.982,465.421a7.231,7.231,0,1,1-7.231,7.231A7.239,7.239,0,0,1,225.982,465.421Zm0,13.148a5.917,5.917,0,1,0-5.917-5.917A5.923,5.923,0,0,0,225.982,478.569Z" transform="translate(-103.797 -193.066)" fill="#666"/>
          <path id="Caminho_393" data-name="Caminho 393" d="M96.019,539.29a7.231,7.231,0,1,1-7.231,7.231A7.239,7.239,0,0,1,96.019,539.29Zm0,13.148a5.916,5.916,0,1,0-5.917-5.917A5.923,5.923,0,0,0,96.019,552.438Z" transform="translate(-59.27 -218.374)" fill="#666"/>
          <path id="Caminho_394" data-name="Caminho 394" d="M818.519,113.4a7.231,7.231,0,1,1-7.231,7.231A7.239,7.239,0,0,1,818.519,113.4Zm0,13.148a5.917,5.917,0,1,0-5.917-5.917A5.923,5.923,0,0,0,818.519,126.552Z" transform="translate(-306.806 -72.461)" fill="#666"/>
          <path id="Caminho_395" data-name="Caminho 395" d="M1474.519,53.4a7.231,7.231,0,1,1-7.231,7.231A7.239,7.239,0,0,1,1474.519,53.4Zm0,13.148a5.917,5.917,0,1,0-5.917-5.916A5.923,5.923,0,0,0,1474.519,66.546Z" transform="translate(-531.559 -51.902)" fill="#666"/>
          <path id="Caminho_396" data-name="Caminho 396" d="M1871.519,51.123a7.231,7.231,0,1,1-7.231,7.231A7.24,7.24,0,0,1,1871.519,51.123Zm0,13.148a5.917,5.917,0,1,0-5.917-5.917A5.923,5.923,0,0,0,1871.519,64.271Z" transform="translate(-667.575 -51.123)" fill="#666"/>
          <path id="Caminho_397" data-name="Caminho 397" d="M722.519,336.289a7.231,7.231,0,1,1-7.231,7.231A7.24,7.24,0,0,1,722.519,336.289Zm0,13.148a5.917,5.917,0,1,0-5.917-5.916A5.923,5.923,0,0,0,722.519,349.437Z" transform="translate(-273.916 -148.824)" fill="#666"/>
          <path id="Caminho_398" data-name="Caminho 398" d="M350.519,225.421a7.231,7.231,0,1,1-7.231,7.231A7.24,7.24,0,0,1,350.519,225.421Zm0,13.148a5.917,5.917,0,1,0-5.916-5.917A5.923,5.923,0,0,0,350.519,238.569Z" transform="translate(-146.465 -110.839)" fill="#666"/>
          <path id="Caminho_399" data-name="Caminho 399" d="M95.519,315.369a7.231,7.231,0,1,1-7.231,7.231A7.239,7.239,0,0,1,95.519,315.369Zm0,13.148A5.917,5.917,0,1,0,89.6,322.6,5.923,5.923,0,0,0,95.519,328.517Z" transform="translate(-59.099 -141.657)" fill="#666"/>
          <path id="Caminho_400" data-name="Caminho 400" d="M95.519,263.289a7.231,7.231,0,1,1-7.231,7.231A7.24,7.24,0,0,1,95.519,263.289Zm0,13.148A5.917,5.917,0,1,0,89.6,270.52,5.923,5.923,0,0,0,95.519,276.437Z" transform="translate(-59.099 -123.813)" fill="#666"/>
          <g id="Grupo_217" data-name="Grupo 217" transform="translate(0 6.574)">
            <path id="Caminho_401" data-name="Caminho 401" d="M405.568,63.4H733.253v1.315H406.112L366.665,104.16H109.288v-1.315H366.121Z" transform="translate(-66.294 -61.903)" fill="#666"/>
            <path id="Caminho_402" data-name="Caminho 402" d="M871.916,175.789H1151.25V177.1H872.46l-73.3,73.3H488.986L434.423,195.84H109.288v-1.315h325.68l54.563,54.563H798.617Z" transform="translate(-66.294 -100.409)" fill="#666"/>
            <path id="Caminho_403" data-name="Caminho 403" d="M109.288,274.289H291.657L371.2,353.833H621.394v1.315H370.656L291.112,275.6H109.288Z" transform="translate(-66.294 -134.156)" fill="#666"/>
            <path id="Caminho_404" data-name="Caminho 404" d="M1017.807,62.843h154.465v1.315H1018.351l-92.985,92.985H604.288v-1.315H924.821Z" transform="translate(-235.886 -61.713)" fill="#666"/>
            <rect id="Retângulo_1580" data-name="Retângulo 1580" width="205.039" height="1.315" transform="translate(300.099 40.942)" fill="#666"/>
            <path id="Caminho_405" data-name="Caminho 405" d="M109.288,324.289h146.87l84.8,84.8H450.473v1.315H340.416l-84.8-84.8H109.288Z" transform="translate(-66.294 -151.287)" fill="#666"/>
            <path id="Caminho_406" data-name="Caminho 406" d="M109.288,408.289h123.2l92.692,92.692h194.7l54.728-54.728h178.26v1.315H575.156L520.428,502.3H324.639L231.947,409.6H109.288Z" transform="translate(-66.294 -180.066)" fill="#666"/>
            <path id="Caminho_407" data-name="Caminho 407" d="M1123.875,272.289h131.75V273.6H1124.419l-48.647,48.647H736.288v-1.315h338.941Z" transform="translate(-281.11 -133.471)" fill="#666"/>
            <path id="Caminho_408" data-name="Caminho 408" d="M588.91,567.289H800.2V568.6H589.454l-45.36,45.36H109.288v-1.315H543.55Z" transform="translate(-66.294 -234.541)" fill="#666"/>
            <rect id="Retângulo_1581" data-name="Retângulo 1581" width="130.82" height="1.315" transform="translate(42.994 320.915)" fill="#666"/>
            <path id="Caminho_409" data-name="Caminho 409" d="M73.507,886.421h371.6l30.984,30.984h64.389v1.315H475.545l-30.984-30.984H74.052L44.816,916.972l-.93-.93Z" transform="translate(-43.886 -343.879)" fill="#666"/>
            <path id="Caminho_410" data-name="Caminho 410" d="M1488.684,61.123h170.352v1.315H1489.228L1454.86,96.807H1263.287V95.492h191.028Z" transform="translate(-461.666 -61.123)" fill="#666"/>
            <path id="Caminho_411" data-name="Caminho 411" d="M364.288,235.421h97.566l53.441,53.441-.93.93-53.056-53.056H364.288Z" transform="translate(-153.659 -120.84)" fill="#666"/>
            <rect id="Retângulo_1582" data-name="Retângulo 1582" width="72.618" height="1.315" transform="translate(42.994 272.355)" fill="#666"/>
            <path id="Caminho_412" data-name="Caminho 412" d="M288.347,768.559H431.08v1.315H288.891l-55.085,55.085H109.288v-1.314H233.262Z" transform="translate(-66.294 -303.498)" fill="#666"/>
          </g>
        </g>
      </g>
      <g id="Grupo_220" data-name="Grupo 220" transform="translate(-219.79 25.158)">
        <circle id="Elipse_42" data-name="Elipse 42" cx="6.574" cy="6.574" r="6.574" transform="translate(905.614 319.339)" fill="#666"/>
        <circle id="Elipse_43" data-name="Elipse 43" cx="6.574" cy="6.574" r="6.574" transform="translate(781.687 266.681)" fill="#666"/>
        <circle id="Elipse_44" data-name="Elipse 44" cx="6.574" cy="6.574" r="6.574" transform="translate(617.391 2.152)" fill="#666"/>
        <circle id="Elipse_45" data-name="Elipse 45" cx="6.574" cy="6.574" r="6.574" transform="translate(553.135 60.872)" fill="#666"/>
        <circle id="Elipse_46" data-name="Elipse 46" cx="6.574" cy="6.574" r="6.574" transform="translate(1069.624 139.476)" fill="#666"/>
        <circle id="Elipse_47" data-name="Elipse 47" cx="6.574" cy="6.574" r="6.574" transform="translate(1180.065 76.038)" fill="#666"/>
        <circle id="Elipse_48" data-name="Elipse 48" cx="6.574" cy="6.574" r="6.574" transform="translate(896.73 35.026)" fill="#666"/>
        <circle id="Elipse_49" data-name="Elipse 49" cx="6.574" cy="6.574" r="6.574" transform="translate(479.288 258.463)" fill="#666"/>
        <circle id="Elipse_50" data-name="Elipse 50" cx="6.574" cy="6.574" r="6.574" transform="translate(514.595 205.849)" fill="#666"/>
        <circle id="Elipse_51" data-name="Elipse 51" cx="6.574" cy="6.574" r="6.574" transform="translate(174.085 452.511)" fill="#666"/>
        <circle id="Elipse_52" data-name="Elipse 52" cx="6.574" cy="6.574" r="6.574" transform="translate(459.895 455.245)" fill="#666"/>
        <circle id="Elipse_53" data-name="Elipse 53" cx="6.574" cy="6.574" r="6.574" transform="translate(268.924 321.573)" fill="#666"/>
        <path id="Caminho_413" data-name="Caminho 413" d="M692.519,650.74a7.231,7.231,0,1,1-7.231,7.231A7.239,7.239,0,0,1,692.519,650.74Zm0,13.148a5.917,5.917,0,1,0-5.916-5.916A5.923,5.923,0,0,0,692.519,663.888Z" transform="translate(-90.299 -239.489)" fill="#666"/>
        <path id="Caminho_414" data-name="Caminho 414" d="M815.947,714.87a7.231,7.231,0,1,1-7.231,7.231A7.239,7.239,0,0,1,815.947,714.87Zm0,13.148a5.917,5.917,0,1,0-5.916-5.917A5.923,5.923,0,0,0,815.947,728.018Z" transform="translate(-132.587 -261.461)" fill="#666"/>
        <path id="Caminho_415" data-name="Caminho 415" d="M1057.519,531.324a7.231,7.231,0,1,1-7.231,7.231A7.24,7.24,0,0,1,1057.519,531.324Zm0,13.148a5.917,5.917,0,1,0-5.917-5.917A5.923,5.923,0,0,0,1057.519,544.472Z" transform="translate(-215.352 -198.576)" fill="#666"/>
        <path id="Caminho_416" data-name="Caminho 416" d="M785.519,359.324a7.231,7.231,0,1,1-7.231,7.231A7.24,7.24,0,0,1,785.519,359.324Zm0,13.148a5.917,5.917,0,1,0-5.917-5.917A5.923,5.923,0,0,0,785.519,372.472Z" transform="translate(-122.162 -139.647)" fill="#666"/>
        <path id="Caminho_417" data-name="Caminho 417" d="M116.982,439.455a7.231,7.231,0,1,1-7.231,7.231A7.239,7.239,0,0,1,116.982,439.455Zm0,13.148a5.917,5.917,0,1,0-5.917-5.917A5.923,5.923,0,0,0,116.982,452.6Z" transform="translate(106.886 -167.101)" fill="#666"/>
        <path id="Caminho_418" data-name="Caminho 418" d="M489.44,87.438a7.231,7.231,0,1,1-7.231,7.231A7.239,7.239,0,0,1,489.44,87.438Zm0,13.148a5.917,5.917,0,1,0-5.916-5.917A5.923,5.923,0,0,0,489.44,100.586Z" transform="translate(-20.722 -46.496)" fill="#666"/>
        <path id="Caminho_419" data-name="Caminho 419" d="M929.987,49.864a7.231,7.231,0,1,1-7.231,7.231A7.239,7.239,0,0,1,929.987,49.864Zm0,13.148a5.917,5.917,0,1,0-5.917-5.917A5.923,5.923,0,0,0,929.987,63.012Z" transform="translate(-171.658 -33.623)" fill="#666"/>
        <path id="Caminho_420" data-name="Caminho 420" d="M1365.519,27.432a7.231,7.231,0,1,1-7.231,7.231A7.24,7.24,0,0,1,1365.519,27.432Zm0,13.148a5.917,5.917,0,1,0-5.917-5.917A5.923,5.923,0,0,0,1365.519,40.58Z" transform="translate(-320.876 -25.937)" fill="#666"/>
        <path id="Caminho_421" data-name="Caminho 421" d="M1762.519,25.158a7.231,7.231,0,1,1-7.231,7.231A7.239,7.239,0,0,1,1762.519,25.158Zm0,13.148a5.917,5.917,0,1,0-5.917-5.917A5.924,5.924,0,0,0,1762.519,38.306Z" transform="translate(-456.893 -25.158)" fill="#666"/>
        <path id="Caminho_422" data-name="Caminho 422" d="M613.519,310.324a7.231,7.231,0,1,1-7.231,7.231A7.24,7.24,0,0,1,613.519,310.324Zm0,13.148a5.917,5.917,0,1,0-5.917-5.917A5.923,5.923,0,0,0,613.519,323.472Z" transform="translate(-63.233 -122.859)" fill="#666"/>
        <path id="Caminho_423" data-name="Caminho 423" d="M330.519,255.068a7.231,7.231,0,1,1-7.231,7.231A7.239,7.239,0,0,1,330.519,255.068Zm0,13.148A5.917,5.917,0,1,0,324.6,262.3,5.923,5.923,0,0,0,330.519,268.216Z" transform="translate(33.726 -103.928)" fill="#666"/>
        <path id="Caminho_424" data-name="Caminho 424" d="M76.49,37.432H404.175v1.315H77.034L37.587,78.194H-219.79V76.879H37.043Z" transform="translate(219.79 -29.363)" fill="#666"/>
        <path id="Caminho_425" data-name="Caminho 425" d="M762.916,149.824H1042.25v1.315H763.46l-73.3,73.3H379.986l-54.563-54.563H.288V168.56h325.68l54.563,54.563H689.617Z" transform="translate(144.389 -67.87)" fill="#666"/>
        <path id="Caminho_426" data-name="Caminho 426" d="M.288,248.324H182.657L262.2,327.869H512.394v1.315H261.656l-79.544-79.544H.288Z" transform="translate(144.389 -101.617)" fill="#666"/>
        <path id="Caminho_427" data-name="Caminho 427" d="M908.807,36.878h154.465v1.315H909.351l-92.985,92.985H495.288v-1.315H815.821Z" transform="translate(-25.203 -29.173)" fill="#666"/>
        <rect id="Retângulo_1583" data-name="Retângulo 1583" width="205.039" height="1.315" transform="translate(257.105 47.516)" fill="#666"/>
        <path id="Caminho_428" data-name="Caminho 428" d="M.288,298.324h146.87l84.8,84.8H341.473v1.315H231.416l-84.8-84.8H.288Z" transform="translate(144.389 -118.748)" fill="#666"/>
        <path id="Caminho_429" data-name="Caminho 429" d="M.288,382.324h123.2l92.692,92.692h194.7l54.728-54.728h178.26V421.6H466.156l-54.728,54.728H215.639l-92.692-92.692H.288Z" transform="translate(144.389 -147.527)" fill="#666"/>
        <path id="Caminho_430" data-name="Caminho 430" d="M1014.875,246.324h131.75v1.315H1015.419l-48.647,48.647H627.288v-1.315H966.228Z" transform="translate(-70.428 -100.932)" fill="#666"/>
        <path id="Caminho_431" data-name="Caminho 431" d="M479.91,541.325H691.2v1.315H480.454L435.094,588H.288v-1.315H434.55Z" transform="translate(144.389 -202.002)" fill="#666"/>
        <rect id="Retângulo_1584" data-name="Retângulo 1584" width="130.82" height="1.315" transform="translate(144.677 327.489)" fill="#666"/>
        <path id="Caminho_432" data-name="Caminho 432" d="M83.936,677.739h371.6l30.984,30.984h64.389v1.315H485.974L454.99,679.053H84.48L55.245,708.289l-.93-.93Z" transform="translate(125.879 -248.739)" fill="#666"/>
        <path id="Caminho_433" data-name="Caminho 433" d="M1007.947,520.22l.93.93-58.108,58.107H733.37l-29.86,29.86-.93-.93,30.245-30.245h217.4Z" transform="translate(-96.224 -194.772)" fill="#666"/>
        <path id="Caminho_434" data-name="Caminho 434" d="M1379.684,35.157h170.352v1.315H1380.228L1345.86,70.841H1154.288V69.526h191.028Z" transform="translate(-250.983 -28.584)" fill="#666"/>
        <path id="Caminho_435" data-name="Caminho 435" d="M343.288,266.068h97.566l53.441,53.441-.93.93-53.056-53.056H343.288Z" transform="translate(26.874 -107.696)" fill="#666"/>
        <rect id="Retângulo_1585" data-name="Retângulo 1585" width="72.618" height="1.315" transform="translate(144.677 278.929)" fill="#666"/>
        <path id="Caminho_436" data-name="Caminho 436" d="M179.347,726.662H322.08v1.315H179.891l-55.085,55.084H.288v-1.315H124.262Z" transform="translate(144.389 -265.501)" fill="#666"/>
        <path id="Caminho_437" data-name="Caminho 437" d="M825.41,67.554l.93.93-39.3,39.3H631.621v-1.315H786.492Z" transform="translate(-71.912 -39.683)" fill="#666"/>
      </g>
    </g>
    <g id="Grupo_222" data-name="Grupo 222" transform="translate(-172.612 1400.207)">
      <g id="Grupo_225" data-name="Grupo 225" transform="translate(499.788 759.559)" opacity="0.15">
        <g id="Grupo_222-2" data-name="Grupo 222" transform="translate(108.307 0)">
          <circle id="Elipse_54" data-name="Elipse 54" cx="5.951" cy="5.951" r="5.951" transform="translate(360.628 278.959)" fill="#666"/>
          <circle id="Elipse_55" data-name="Elipse 55" cx="5.951" cy="5.951" r="5.951" transform="translate(943.227 433.812)" fill="#666"/>
          <circle id="Elipse_56" data-name="Elipse 56" cx="5.951" cy="5.951" r="5.951" transform="translate(943.822 483.307)" fill="#666"/>
          <circle id="Elipse_57" data-name="Elipse 57" cx="5.951" cy="5.951" r="5.951" transform="translate(378.388 518.421)" fill="#666"/>
          <circle id="Elipse_58" data-name="Elipse 58" cx="5.951" cy="5.951" r="5.951" transform="translate(99.976 394.11)" fill="#666"/>
          <circle id="Elipse_59" data-name="Elipse 59" cx="5.951" cy="5.951" r="5.951" transform="translate(0 451.537)" fill="#666"/>
          <circle id="Elipse_60" data-name="Elipse 60" cx="5.951" cy="5.951" r="5.951" transform="translate(256.486 488.663)" fill="#666"/>
          <circle id="Elipse_61" data-name="Elipse 61" cx="5.951" cy="5.951" r="5.951" transform="translate(634.372 286.398)" fill="#666"/>
          <circle id="Elipse_62" data-name="Elipse 62" cx="5.951" cy="5.951" r="5.951" transform="translate(655.201 367.848)" fill="#666"/>
          <circle id="Elipse_63" data-name="Elipse 63" cx="5.906" cy="5.906" r="5.906" transform="translate(649.691 99.355)" fill="#666"/>
          <circle id="Elipse_64" data-name="Elipse 64" cx="5.951" cy="5.951" r="5.951" transform="translate(824.803 229.269)" fill="#666"/>
          <circle id="Elipse_65" data-name="Elipse 65" cx="5.951" cy="5.951" r="5.951" transform="translate(942.356 48.322)" fill="#666"/>
          <circle id="Elipse_66" data-name="Elipse 66" cx="5.951" cy="5.951" r="5.951" transform="translate(943.525 176.9)" fill="#666"/>
          <circle id="Elipse_67" data-name="Elipse 67" cx="5.951" cy="5.951" r="5.951" transform="translate(982.147)" fill="#666"/>
          <circle id="Elipse_68" data-name="Elipse 68" cx="5.951" cy="5.951" r="5.951" transform="translate(940.847 273.227)" fill="#666"/>
          <circle id="Elipse_69" data-name="Elipse 69" cx="5.951" cy="5.951" r="5.951" transform="translate(943.227 312.781)" fill="#666"/>
        </g>
        <g id="Grupo_224" data-name="Grupo 224" transform="translate(0)">
          <path id="Caminho_438" data-name="Caminho 438" d="M1571.9,772.651a6.546,6.546,0,1,1,6.546-6.546A6.553,6.553,0,0,1,1571.9,772.651Zm0-11.9a5.356,5.356,0,1,0,5.356,5.356A5.362,5.362,0,0,0,1571.9,760.749Z" transform="translate(-931.242 -759.559)" fill="#666"/>
          <path id="Caminho_439" data-name="Caminho 439" d="M1211.334,1138.915a6.546,6.546,0,1,1,6.546-6.546A6.553,6.553,0,0,1,1211.334,1138.915Zm0-11.9a5.356,5.356,0,1,0,5.356,5.356A5.362,5.362,0,0,0,1211.334,1127.013Z" transform="translate(-785.245 -907.861)" fill="#666"/>
          <path id="Caminho_440" data-name="Caminho 440" d="M1483.334,1310.915a6.546,6.546,0,1,1,6.546-6.546A6.553,6.553,0,0,1,1483.334,1310.915Zm0-11.9a5.356,5.356,0,1,0,5.356,5.356A5.362,5.362,0,0,0,1483.334,1299.013Z" transform="translate(-895.379 -977.504)" fill="#666"/>
          <path id="Caminho_441" data-name="Caminho 441" d="M2151.87,1230.783a6.546,6.546,0,1,1,6.546-6.546A6.553,6.553,0,0,1,2151.87,1230.783Zm0-11.9a5.356,5.356,0,1,0,5.356,5.356A5.362,5.362,0,0,0,2151.87,1218.881Z" transform="translate(-1166.072 -945.059)" fill="#666"/>
          <path id="Caminho_442" data-name="Caminho 442" d="M2281.834,1156.915a6.546,6.546,0,1,1,6.546-6.546A6.553,6.553,0,0,1,2281.834,1156.915Zm0-11.9a5.356,5.356,0,1,0,5.356,5.356A5.362,5.362,0,0,0,2281.834,1145.013Z" transform="translate(-1218.695 -915.149)" fill="#666"/>
          <path id="Caminho_443" data-name="Caminho 443" d="M1559.334,1582.8a6.546,6.546,0,1,1,6.546-6.546A6.553,6.553,0,0,1,1559.334,1582.8Zm0-11.9a5.356,5.356,0,1,0,5.356,5.356A5.362,5.362,0,0,0,1559.334,1570.9Z" transform="translate(-926.152 -1087.592)" fill="#666"/>
          <path id="Caminho_444" data-name="Caminho 444" d="M903.334,1642.807a6.546,6.546,0,1,1,6.546-6.546A6.553,6.553,0,0,1,903.334,1642.807Zm0-11.9a5.356,5.356,0,1,0,5.356,5.356A5.362,5.362,0,0,0,903.334,1630.9Z" transform="translate(-660.535 -1111.888)" fill="#666"/>
          <path id="Caminho_445" data-name="Caminho 445" d="M506.334,1645.081a6.546,6.546,0,1,1,6.546-6.546A6.553,6.553,0,0,1,506.334,1645.081Zm0-11.9a5.356,5.356,0,1,0,5.356,5.356A5.362,5.362,0,0,0,506.334,1633.179Z" transform="translate(-499.788 -1112.809)" fill="#666"/>
          <path id="Caminho_446" data-name="Caminho 446" d="M1655.334,1359.915a6.546,6.546,0,1,1,6.546-6.546A6.553,6.553,0,0,1,1655.334,1359.915Zm0-11.9a5.356,5.356,0,1,0,5.356,5.356A5.362,5.362,0,0,0,1655.334,1348.013Z" transform="translate(-965.023 -997.345)" fill="#666"/>
          <path id="Caminho_447" data-name="Caminho 447" d="M2027.334,1470.783a6.546,6.546,0,1,1,6.546-6.546A6.553,6.553,0,0,1,2027.334,1470.783Zm0-11.9a5.356,5.356,0,1,0,5.356,5.356A5.362,5.362,0,0,0,2027.334,1458.881Z" transform="translate(-1115.647 -1042.236)" fill="#666"/>
          <path id="Caminho_448" data-name="Caminho 448" d="M2282.334,1380.836a6.546,6.546,0,1,1,6.546-6.546A6.553,6.553,0,0,1,2282.334,1380.836Zm0-11.9a5.356,5.356,0,1,0,5.356,5.356A5.362,5.362,0,0,0,2282.334,1368.934Z" transform="translate(-1218.898 -1005.816)" fill="#666"/>
          <path id="Caminho_449" data-name="Caminho 449" d="M2282.334,1432.915a6.546,6.546,0,1,1,6.546-6.546A6.553,6.553,0,0,1,2282.334,1432.915Zm0-11.9a5.356,5.356,0,1,0,5.356,5.356A5.362,5.362,0,0,0,2282.334,1421.013Z" transform="translate(-1218.898 -1026.903)" fill="#666"/>
          <g id="Grupo_223" data-name="Grupo 223" transform="translate(12.497 5.951)">
            <path id="Caminho_450" data-name="Caminho 450" d="M1624.265,1616.608H1327.631v-1.19h296.141l35.709-35.709H1892.47v1.19h-232.5Z" transform="translate(-847.482 -1097.592)" fill="#666"/>
            <path id="Caminho_451" data-name="Caminho 451" d="M944.652,1483.366H691.788v-1.19H944.159l66.353-66.353H1291.3l49.393,49.393h294.326v1.19H1340.2l-49.393-49.393h-279.8Z" transform="translate(-590.026 -1031.234)" fill="#666"/>
            <path id="Caminho_452" data-name="Caminho 452" d="M1961.367,1381.02H1796.28l-72.007-72.007H1497.788v-1.19h226.978l72.007,72.007h164.6Z" transform="translate(-916.379 -987.505)" fill="#666"/>
            <path id="Caminho_453" data-name="Caminho 453" d="M1057.616,1584.188H917.788V1583h139.335l84.174-84.174h290.653v1.19H1141.79Z" transform="translate(-681.535 -1064.841)" fill="#666"/>
            <rect id="Retângulo_1587" data-name="Retângulo 1587" width="185.61" height="1.19" transform="translate(626.636 482.117)" fill="#666"/>
            <path id="Caminho_454" data-name="Caminho 454" d="M2066.642,1327.781H1933.69l-76.768-76.767h-99.135v-1.19h99.627l76.767,76.767h132.46Z" transform="translate(-1021.654 -964.02)" fill="#666"/>
            <path id="Caminho_455" data-name="Caminho 455" d="M1880.387,1238.922h-111.53l-83.908-83.908H1508.7l-49.542,49.542H1297.788v-1.19h160.876l49.542-49.542h177.236l83.908,83.908h111.037Z" transform="translate(-835.398 -925.149)" fill="#666"/>
            <path id="Caminho_456" data-name="Caminho 456" d="M979.053,1402.05H859.788v-1.19H978.56l44.037-44.037h307.316v1.19H1023.09Z" transform="translate(-658.05 -1007.345)" fill="#666"/>
            <path id="Caminho_457" data-name="Caminho 457" d="M1417.06,1109.075H1225.788v-1.19h190.779l41.062-41.062h393.6v1.19H1458.122Z" transform="translate(-806.245 -889.923)" fill="#666"/>
            <rect id="Retângulo_1588" data-name="Retângulo 1588" width="118.424" height="1.19" transform="translate(926.564 228.674)" fill="#666"/>
            <path id="Caminho_458" data-name="Caminho 458" d="M2009.51,798.8H1673.124l-28.048-28.048h-58.288v-1.19h58.781l28.048,28.048h335.4l26.465-26.466.841.842Z" transform="translate(-952.415 -769.559)" fill="#666"/>
            <path id="Caminho_459" data-name="Caminho 459" d="M675,1622.011H520.788v-1.19H674.5l31.112-31.112H879.035v1.19H706.109Z" transform="translate(-520.788 -1101.641)" fill="#666"/>
            <path id="Caminho_460" data-name="Caminho 460" d="M1928.778,1436.2h-88.321l-48.377-48.377.842-.842,48.028,48.029h87.828Z" transform="translate(-1035.539 -1019.557)" fill="#666"/>
            <rect id="Retângulo_1589" data-name="Retângulo 1589" width="65.737" height="1.19" transform="translate(979.252 272.632)" fill="#666"/>
            <path id="Caminho_461" data-name="Caminho 461" d="M1916.5,901.815H1787.288v-1.19H1916l49.865-49.865h112.72v1.19H1966.36Z" transform="translate(-1033.599 -802.438)" fill="#666"/>
          </g>
        </g>
      </g>
      <g id="Grupo_226" data-name="Grupo 226" transform="translate(564.653 838.765)">
        <circle id="Elipse_70" data-name="Elipse 70" cx="5.951" cy="5.951" r="5.951" transform="translate(356.752 167.536)" fill="#666"/>
        <circle id="Elipse_71" data-name="Elipse 71" cx="5.951" cy="5.951" r="5.951" transform="translate(468.935 215.205)" fill="#666"/>
        <circle id="Elipse_72" data-name="Elipse 72" cx="5.951" cy="5.951" r="5.951" transform="translate(617.663 454.667)" fill="#666"/>
        <circle id="Elipse_73" data-name="Elipse 73" cx="5.951" cy="5.951" r="5.951" transform="translate(675.83 401.512)" fill="#666"/>
        <circle id="Elipse_74" data-name="Elipse 74" cx="5.951" cy="5.951" r="5.951" transform="translate(208.283 330.356)" fill="#666"/>
        <circle id="Elipse_75" data-name="Elipse 75" cx="5.951" cy="5.951" r="5.951" transform="translate(108.307 387.783)" fill="#666"/>
        <circle id="Elipse_76" data-name="Elipse 76" cx="5.951" cy="5.951" r="5.951" transform="translate(364.794 424.909)" fill="#666"/>
        <circle id="Elipse_77" data-name="Elipse 77" cx="5.951" cy="5.951" r="5.951" transform="translate(742.68 222.644)" fill="#666"/>
        <circle id="Elipse_78" data-name="Elipse 78" cx="5.951" cy="5.951" r="5.951" transform="translate(710.719 270.272)" fill="#666"/>
        <circle id="Elipse_79" data-name="Elipse 79" cx="5.951" cy="5.951" r="5.951" transform="translate(1018.962 46.984)" fill="#666"/>
        <circle id="Elipse_80" data-name="Elipse 80" cx="5.951" cy="5.951" r="5.951" transform="translate(760.235 44.509)" fill="#666"/>
        <circle id="Elipse_81" data-name="Elipse 81" cx="5.951" cy="5.951" r="5.951" transform="translate(933.11 165.515)" fill="#666"/>
        <path id="Caminho_462" data-name="Caminho 462" d="M1685.334,1045.465a6.546,6.546,0,1,1,6.546-6.546A6.553,6.553,0,0,1,1685.334,1045.465Zm0-11.9a5.356,5.356,0,1,0,5.356,5.356A5.362,5.362,0,0,0,1685.334,1033.563Z" transform="translate(-1042.035 -949.229)" fill="#666"/>
        <path id="Caminho_463" data-name="Caminho 463" d="M1561.905,981.334a6.546,6.546,0,1,1,6.546-6.546A6.554,6.554,0,0,1,1561.905,981.334Zm0-11.9a5.356,5.356,0,1,0,5.356,5.356A5.362,5.362,0,0,0,1561.905,969.432Z" transform="translate(-992.058 -923.262)" fill="#666"/>
        <path id="Caminho_464" data-name="Caminho 464" d="M1320.334,1164.88a6.546,6.546,0,1,1,6.546-6.546A6.553,6.553,0,0,1,1320.334,1164.88Zm0-11.9a5.356,5.356,0,1,0,5.356,5.356A5.362,5.362,0,0,0,1320.334,1152.978Z" transform="translate(-894.245 -997.58)" fill="#666"/>
        <path id="Caminho_465" data-name="Caminho 465" d="M1592.334,1336.88a6.546,6.546,0,1,1,6.546-6.546A6.553,6.553,0,0,1,1592.334,1336.88Zm0-11.9a5.356,5.356,0,1,0,5.356,5.356A5.362,5.362,0,0,0,1592.334,1324.978Z" transform="translate(-1004.379 -1067.224)" fill="#666"/>
        <path id="Caminho_466" data-name="Caminho 466" d="M2260.87,1256.749a6.546,6.546,0,1,1,6.546-6.546A6.554,6.554,0,0,1,2260.87,1256.749Zm0-11.9a5.356,5.356,0,1,0,5.356,5.356A5.362,5.362,0,0,0,2260.87,1244.847Z" transform="translate(-1275.072 -1034.778)" fill="#666"/>
        <path id="Caminho_467" data-name="Caminho 467" d="M1888.412,1608.767a6.546,6.546,0,1,1,6.546-6.546A6.554,6.554,0,0,1,1888.412,1608.767Zm0-11.9a5.356,5.356,0,1,0,5.356,5.356A5.362,5.362,0,0,0,1888.412,1596.865Z" transform="translate(-1124.262 -1177.312)" fill="#666"/>
        <path id="Caminho_468" data-name="Caminho 468" d="M1447.865,1646.341a6.546,6.546,0,1,1,6.546-6.546A6.554,6.554,0,0,1,1447.865,1646.341Zm0-11.9a5.356,5.356,0,1,0,5.356,5.356A5.362,5.362,0,0,0,1447.865,1634.439Z" transform="translate(-945.883 -1192.526)" fill="#666"/>
        <path id="Caminho_469" data-name="Caminho 469" d="M1012.334,1668.773a6.546,6.546,0,1,1,6.546-6.546A6.553,6.553,0,0,1,1012.334,1668.773Zm0-11.9a5.356,5.356,0,1,0,5.356,5.356A5.362,5.362,0,0,0,1012.334,1656.871Z" transform="translate(-769.535 -1201.608)" fill="#666"/>
        <path id="Caminho_470" data-name="Caminho 470" d="M615.334,1671.047a6.546,6.546,0,1,1,6.546-6.546A6.553,6.553,0,0,1,615.334,1671.047Zm0-11.9a5.356,5.356,0,1,0,5.356,5.356A5.362,5.362,0,0,0,615.334,1659.145Z" transform="translate(-608.788 -1202.529)" fill="#666"/>
        <path id="Caminho_471" data-name="Caminho 471" d="M1764.334,1385.88a6.546,6.546,0,1,1,6.546-6.546A6.554,6.554,0,0,1,1764.334,1385.88Zm0-11.9a5.356,5.356,0,1,0,5.356,5.356A5.362,5.362,0,0,0,1764.334,1373.978Z" transform="translate(-1074.023 -1087.064)" fill="#666"/>
        <path id="Caminho_472" data-name="Caminho 472" d="M2047.334,1441.137a6.546,6.546,0,1,1,6.546-6.546A6.553,6.553,0,0,1,2047.334,1441.137Zm0-11.9a5.356,5.356,0,1,0,5.356,5.356A5.362,5.362,0,0,0,2047.334,1429.235Z" transform="translate(-1188.611 -1109.438)" fill="#666"/>
        <path id="Caminho_473" data-name="Caminho 473" d="M1953.343,1642.574H1656.709v-1.19H1952.85l35.709-35.709h232.989v1.19h-232.5Z" transform="translate(-1033.095 -1181.361)" fill="#666"/>
        <path id="Caminho_474" data-name="Caminho 474" d="M1053.652,1509.331H800.788v-1.19h252.372l66.353-66.353H1400.3l49.393,49.393h294.326v1.19H1449.2l-49.393-49.393h-279.8Z" transform="translate(-686.529 -1115.002)" fill="#666"/>
        <path id="Caminho_475" data-name="Caminho 475" d="M2070.367,1406.985H1905.279l-72.007-72.007H1606.788v-1.19h226.978l72.007,72.007h164.595Z" transform="translate(-1012.882 -1071.273)" fill="#666"/>
        <path id="Caminho_476" data-name="Caminho 476" d="M1166.616,1610.152H1026.788v-1.19h139.336l84.174-84.174H1540.95v1.19H1250.79Z" transform="translate(-778.038 -1148.609)" fill="#666"/>
        <rect id="Retângulo_1590" data-name="Retângulo 1590" width="185.61" height="1.19" transform="translate(770.1 424.314)" fill="#666"/>
        <path id="Caminho_477" data-name="Caminho 477" d="M2175.642,1353.745H2042.69l-76.767-76.767h-99.135v-1.19h99.627l76.767,76.767h132.46Z" transform="translate(-1118.157 -1047.788)" fill="#666"/>
        <path id="Caminho_478" data-name="Caminho 478" d="M1989.386,1264.887H1877.857l-83.908-83.909H1617.7l-49.542,49.542H1406.788v-1.19h160.876l49.542-49.542h177.236l83.908,83.909h111.037Z" transform="translate(-931.901 -1008.917)" fill="#666"/>
        <path id="Caminho_479" data-name="Caminho 479" d="M1088.053,1428.015H968.788v-1.19H1087.56l44.037-44.037h307.316v1.19H1132.09Z" transform="translate(-754.553 -1091.113)" fill="#666"/>
        <path id="Caminho_480" data-name="Caminho 480" d="M1526.06,1135.04H1334.788v-1.19h190.779l41.062-41.062h393.6v1.19H1567.121Z" transform="translate(-902.748 -973.691)" fill="#666"/>
        <rect id="Retângulo_1591" data-name="Retângulo 1591" width="118.424" height="1.19" transform="translate(939.061 170.87)" fill="#666"/>
        <path id="Caminho_481" data-name="Caminho 481" d="M1999.081,1007.48H1662.695l-28.048-28.048h-58.288v-1.19h58.781l28.048,28.048h335.4l26.466-26.466.842.841Z" transform="translate(-1000.562 -927.311)" fill="#666"/>
        <path id="Caminho_482" data-name="Caminho 482" d="M1218.408,1130.139l-.842-.842,52.6-52.6h196.8l27.03-27.03.842.842-27.379,27.379h-196.8Z" transform="translate(-855.285 -956.23)" fill="#666"/>
        <path id="Caminho_483" data-name="Caminho 483" d="M784,1647.977H629.788v-1.19H783.5l31.111-31.112H988.035v1.19H815.109Z" transform="translate(-617.291 -1185.41)" fill="#666"/>
        <path id="Caminho_484" data-name="Caminho 484" d="M1949.778,1405.556h-88.321l-48.377-48.377.842-.842,48.028,48.028h87.828Z" transform="translate(-1096.411 -1080.403)" fill="#666"/>
        <rect id="Retângulo_1592" data-name="Retângulo 1592" width="65.737" height="1.19" transform="translate(991.749 214.83)" fill="#666"/>
        <path id="Caminho_485" data-name="Caminho 485" d="M2025.5,943.712H1896.288v-1.19H2025l49.865-49.865h112.72v1.19H2075.36Z" transform="translate(-1130.102 -892.657)" fill="#666"/>
        <path id="Caminho_486" data-name="Caminho 486" d="M1459.1,1612.778l-.842-.842,35.578-35.578h140.689v1.19h-140.2Z" transform="translate(-952.74 -1169.49)" fill="#666"/>
      </g>
    </g>
  </g>
</svg>
