<svg xmlns="http://www.w3.org/2000/svg" xmlns:xlink="http://www.w3.org/1999/xlink" width="32" height="32" viewBox="0 0 32 32">
  <defs>
    <clipPath id="clip-path">
      <circle id="Frame" cx="16" cy="16" r="16" fill="#9b9b9b"/>
    </clipPath>
  </defs>
  <g id="Icon_-_Real" data-name="Icon - Real" clip-path="url(#clip-path)">
    <g id="Icon">
      <rect id="Rectangle" width="32" height="32" fill="#0b9f17"/>
      <path id="Path" d="M16.248,6.663,1.834,16.035l14.5,9.3L30.7,16.012Zm6.337,9.693q0,.059-.008.117-.021.273-.066.539l-.007.038q-.01.057-.021.113l-.015.075,0,0a5.948,5.948,0,0,1-.276.943l0,0A6.083,6.083,0,0,1,20.484,20.6l-.086.073a6.076,6.076,0,0,1-9.7-6.426h-.005a5.94,5.94,0,0,1,.4-.994h0l.024-.046q.1-.184.2-.36l.055-.088.056-.087q.057-.086.116-.17l.06-.084.031-.041.062-.082q.047-.061.1-.121t.1-.118q.084-.1.171-.191l.071-.075a6.091,6.091,0,0,1,7.011-1.259l.11.054.087.045.129.07.064.036.1.06.11.068.075.048a6.09,6.09,0,0,1,.985.8l.1.1h0l.1.107.071.08q.061.069.12.14l.046.057q.046.057.09.115.057.075.112.151a5.994,5.994,0,0,1,.383.6l.045.084q.136.254.248.522l.028.068.023.059.017.044.023.06q.067.183.123.371.019.064.036.128t.031.117l.016.066.012.051.013.06.011.05q.014.068.027.136l.009.05.011.062.008.05q.008.051.015.1a6.112,6.112,0,0,1,.06.854q0,.139-.006.277c0,.026,0,.052,0,.079Z" transform="translate(-0.268)" fill="#f8e509"/>
      <path id="Path-2" data-name="Path" d="M22.47,17.241a5.948,5.948,0,0,1-.276.943l0,0h0A14.547,14.547,0,0,0,10.7,14.244h-.005a5.94,5.94,0,0,1,.4-.994h0l.024-.046-.024.046a14.9,14.9,0,0,1,11.371,3.988l0,0Z" transform="translate(-0.268)" fill="#fff"/>
      <path id="Path-3" data-name="Path" d="M22.191,18.18h0A6.083,6.083,0,0,1,20.484,20.6l-.086.073a6.076,6.076,0,0,1-9.7-6.426A14.548,14.548,0,0,1,22.191,18.18Z" transform="translate(-0.268)" fill="#2554c3"/>
      <path id="Path-4" data-name="Path" d="M22.595,16q0,.139-.006.277c0,.026,0,.052,0,.079s0,.078-.008.117q-.021.273-.066.539l-.007.038q-.01.057-.021.113l-.015.075A14.9,14.9,0,0,0,11.1,13.251l.024-.046q.1-.184.2-.36l.055-.088.056-.087q.057-.086.116-.17l.06-.084.031-.041.062-.082q.047-.061.1-.121t.1-.118q.084-.1.171-.191l.071-.075a6.091,6.091,0,0,1,7.011-1.259l.11.054.087.045.129.07.064.036.1.06.11.068.075.048a6.09,6.09,0,0,1,.985.8l.1.1h0l.1.107.071.08q.061.069.12.14l.046.057q.046.057.09.115.057.075.112.151a5.994,5.994,0,0,1,.383.6l.045.084q.136.254.248.522l.028.068.023.059.017.044.023.06q.067.183.123.371.019.064.036.128t.031.117l.016.066.012.051.013.06.011.05q.014.068.027.136l.009.05.011.062.008.05q.008.051.015.1a6.112,6.112,0,0,1,.06.854Z" transform="translate(-0.268)" fill="#2554c3"/>
    </g>
  </g>
</svg>
