<svg xmlns="http://www.w3.org/2000/svg" xmlns:xlink="http://www.w3.org/1999/xlink" width="40" height="40" viewBox="0 0 40 40">
  <defs>
    <clipPath id="clip-path">
      <circle id="Frame" cx="20" cy="20" r="20" transform="translate(932 218)" fill="#9b9b9b"/>
    </clipPath>
  </defs>
  <g id="Icon_-_Dólar" data-name="Icon - Dólar" transform="translate(-932 -218)" clip-path="url(#clip-path)">
    <g id="Icon" transform="translate(932.002 218.001)">
      <path id="Path" d="M21.2,21.543H39.939Q40,20.779,40,20t-.059-1.544H21.2v3.089Z" fill="#dd3255"/>
      <path id="Path-2" data-name="Path" d="M21.2,18.454H39.939a19.954,19.954,0,0,0-.481-3.089H21.2v3.089Z" fill="#fff"/>
      <path id="Path-3" data-name="Path" d="M21.2,12.276v3.089h18.26a19.856,19.856,0,0,0-1.006-3.089H21.2Z" fill="#dd3255"/>
      <path id="Path-4" data-name="Path" d="M21.2,12.276H38.452a19.973,19.973,0,0,0-1.626-3.089H21.2Z" fill="#fff"/>
      <path id="Path-5" data-name="Path" d="M21.2,9.187H36.826A20.082,20.082,0,0,0,34.376,6.1H21.2Z" fill="#dd3255"/>
      <path id="Path-6" data-name="Path" d="M21.2,6.1H34.376a20.092,20.092,0,0,0-3.823-3.089H21.2Z" fill="#fff"/>
      <path id="Path-7" data-name="Path" d="M30.554,3.009A19.888,19.888,0,0,0,21.2.036V3.009h9.356Z" fill="#dd3255"/>
      <path id="Path-8" data-name="Path" d="M20,40a19.9,19.9,0,0,0,10.555-3.009H9.444A19.906,19.906,0,0,0,20,40Z" fill="#dd3255"/>
      <path id="Path-9" data-name="Path" d="M9.444,36.989h21.11A20.109,20.109,0,0,0,34.377,33.9H5.622A20.092,20.092,0,0,0,9.444,36.989Z" fill="#fff"/>
      <path id="Path-10" data-name="Path" d="M5.622,33.9H34.376a20.075,20.075,0,0,0,2.449-3.089H3.172A20.082,20.082,0,0,0,5.621,33.9Z" fill="#dd3255"/>
      <path id="Path-11" data-name="Path" d="M3.172,30.811H36.826a19.973,19.973,0,0,0,1.626-3.089H1.546a19.927,19.927,0,0,0,1.626,3.089Z" fill="#fff"/>
      <path id="Path-12" data-name="Path" d="M1.546,27.722H38.452a19.8,19.8,0,0,0,1.006-3.089H.54a19.856,19.856,0,0,0,1.006,3.089Z" fill="#dd3255"/>
      <path id="Path-13" data-name="Path" d="M21.2,21.543H.059A19.955,19.955,0,0,0,.54,24.632H39.458a19.964,19.964,0,0,0,.481-3.089H21.2Z" fill="#fff"/>
      <path id="Path-14" data-name="Path" d="M13.623,1.038l.217.633H14.7l-.691.543.258.84-.72-.5-.74.5.288-.84-.735-.543h.912l.189-.579A19.98,19.98,0,0,0,6.648,5.11l.032.1L6.6,5.156A20.079,20.079,0,0,0,2.48,10.347h.677L3.432,9.5l.288.844h.864l-.691.543.258.84-.72-.5-.74.5.288-.84-.569-.42a19.939,19.939,0,0,0-.962,2.039h.6l-.691.543.258.84-.542-.378a19.883,19.883,0,0,0-.828,3.331H.62L.9,16l.288.844h.864l-.691.543.258.84-.72-.5-.74.5.288-.84L.192,17.2A20.148,20.148,0,0,0,0,20q0,.76.056,1.506H21.2V15.366h0V.036Q20.6,0,20,0A19.966,19.966,0,0,0,13.623,1.038ZM4.153,20.4l-.72-.5-.74.5.288-.84-.735-.543h.912l.276-.844.288.844h.864l-.691.543.258.84Zm-.258-5.171.258.84-.72-.5-.74.5.288-.84-.735-.543h.912l.276-.843.288.843h.864l-.691.543Zm2.786,3-.72-.5-.74.5.288-.84-.735-.543h.912L5.96,16l.288.844h.864l-.691.543.258.84Zm-.258-5.176.258.84-.72-.5-.74.5.288-.84-.735-.543h.912l.276-.844.288.844h.864l-.691.543Zm0-4.32.258.84-.72-.5-.74.5.288-.84-.735-.543h.912l.276-.843.288.843h.864l-.691.543ZM9.211,20.4l-.72-.5-.74.5.288-.84L7.3,19.017h.912l.276-.844.288.844h.864l-.691.543Zm-.259-5.171.259.84-.72-.5-.74.5.288-.84L7.3,14.685h.912l.276-.844.288.844h.864Zm0-4.338.258.84-.72-.5-.74.5.288-.84L7.3,10.347h.912L8.49,9.5l.288.844h.864l-.691.543Zm0-4.334.259.84-.72-.5-.74.5.288-.84L7.3,6.013h.912L8.49,5.17l.288.843h.864l-.691.543ZM11.74,18.228l-.72-.5-.74.5.288-.84-.735-.543h.912L11.02,16l.288.844h.864l-.691.543.258.84Zm-.259-5.176.259.84-.72-.5-.74.5.288-.84-.735-.543h.912l.276-.844.288.844h.864Zm0-4.32.258.84-.72-.5-.74.5.288-.84-.735-.543h.912l.276-.843.288.843h.864l-.691.543Zm0-4.358.258.84-.72-.5-.74.5.288-.84-.735-.543h.912l.276-.844.288.844h.864l-.691.543ZM14.271,20.4l-.72-.5-.74.5.288-.84-.735-.543h.912l.276-.844.288.844H14.7l-.691.543.258.84Zm-.258-5.171.258.84-.72-.5-.74.5.288-.84-.735-.543h.912l.276-.844.288.844H14.7l-.691.543Zm0-4.338.258.84-.72-.5-.74.5.288-.84-.735-.543h.912l.276-.844.288.844H14.7l-.691.543Zm0-4.334.258.84-.72-.5-.74.5.288-.84-.735-.543h.912l.276-.843.288.843H14.7l-.691.543ZM16.8,18.228l-.72-.5-.74.5.288-.84-.735-.543h.912L16.081,16l.288.844h.864l-.691.543.258.84Zm-.258-5.176.258.84-.72-.5-.74.5.288-.84-.735-.543h.912l.276-.844.288.844h.864l-.691.543Zm0-4.32.258.84-.72-.5-.74.5.288-.84-.735-.543h.912l.276-.843.288.843h.864l-.691.543Zm0-4.358.258.84-.72-.5-.74.5.288-.84-.735-.543h.912l.276-.844.288.844h.864l-.691.543ZM19.332,20.4l-.72-.5-.74.5.288-.84-.735-.543h.912l.276-.844.288.844h.864l-.691.543.258.84Zm-.258-5.171.258.84-.72-.5-.74.5.288-.84-.735-.543h.912l.276-.843.288.843h.864l-.691.543Zm0-4.338.258.84-.72-.5-.74.5.288-.84-.735-.543h.912l.276-.844.288.844h.864l-.691.543Zm0-4.334.259.84-.72-.5-.74.5.288-.84-.735-.543h.912l.276-.843.288.843h.864l-.691.543Zm0-4.341.259.84-.72-.5-.74.5.288-.84-.735-.543h.912l.276-.843.288.843h.864l-.691.543Z" fill="#2554c3"/>
      <path id="Path-15" data-name="Path" d="M21.2,21.5H.056c0,.013,0,.026,0,.039H21.2Z" fill="#002868"/>
      <path id="Path-16" data-name="Path" d="M13.551.828l-.086.265.158-.054L13.551.827Z" fill="#fff"/>
      <path id="Path-17" data-name="Path" d="M12.363,1.671l.735.543-.288.84.74-.5.72.5-.258-.84.691-.543h-.864l-.217-.633-.158.054-.189.579h-.912Z" fill="#fff"/>
      <path id="Path-18" data-name="Path" d="M18.611.828l-.276.843h-.912l.735.543-.289.839.741-.5.72.5-.259-.839.691-.543H18.9Z" fill="#fff"/>
      <path id="Path-19" data-name="Path" d="M16.081,2.987l-.276.843h-.912l.735.543-.288.84.74-.5.72.5-.259-.84.691-.543h-.864Z" fill="#fff"/>
      <path id="Path-20" data-name="Path" d="M11.019,2.987l-.276.843H9.831l.735.543-.288.84.74-.5.72.5-.258-.84.691-.543h-.864Z" fill="#fff"/>
      <path id="Path-21" data-name="Path" d="M6.648,5.109,6.6,5.155l.083.058Z" fill="#fff"/>
      <path id="Path-22" data-name="Path" d="M8.49,5.169l-.276.844H7.3l.735.543-.288.84.74-.5.72.5-.259-.84.691-.543H8.778Z" fill="#fff"/>
      <path id="Path-23" data-name="Path" d="M13.551,5.169l-.276.844h-.912l.735.543-.288.84.74-.5.72.5-.258-.84.691-.543h-.864Z" fill="#fff"/>
      <path id="Path-24" data-name="Path" d="M18.611,5.169l-.276.844h-.912l.735.543-.289.84.741-.5.72.5-.259-.84.691-.543H18.9Z" fill="#fff"/>
      <path id="Path-25" data-name="Path" d="M16.081,7.345l-.276.843h-.912l.735.543-.288.84.74-.5.72.5-.259-.84.691-.543h-.864Z" fill="#fff"/>
      <path id="Path-26" data-name="Path" d="M11.019,7.345l-.276.843H9.831l.735.543-.288.84.74-.5.72.5-.258-.84.691-.543h-.864Z" fill="#fff"/>
      <path id="Path-27" data-name="Path" d="M5.96,7.345l-.276.843H4.772l.735.543-.288.84.74-.5.72.5-.258-.84.691-.543H6.248Z" fill="#fff"/>
      <path id="Path-28" data-name="Path" d="M2.692,11.729l.74-.5.72.5-.258-.84.691-.543H3.721L3.433,9.5l-.276.844H2.48l-.068.123.569.42-.288.84Z" fill="#fff"/>
      <path id="Path-29" data-name="Path" d="M8.49,9.5l-.276.843H7.3l.735.543-.288.839.74-.5.72.5-.259-.839.691-.543H8.778Z" fill="#fff"/>
      <path id="Path-30" data-name="Path" d="M13.551,9.5l-.276.843h-.912l.735.543-.288.839.74-.5.72.5-.258-.839.691-.543h-.864Z" fill="#fff"/>
      <path id="Path-31" data-name="Path" d="M18.611,9.5l-.276.843h-.912l.735.543-.289.839.741-.5.72.5-.259-.839.691-.543H18.9Z" fill="#fff"/>
      <path id="Path-32" data-name="Path" d="M16.081,11.665l-.276.844h-.912l.735.543-.288.84.74-.5.72.5-.259-.84.691-.543h-.864Z" fill="#fff"/>
      <path id="Path-33" data-name="Path" d="M11.019,11.665l-.276.844H9.831l.735.543-.288.84.74-.5.72.5-.258-.84.691-.543h-.864Z" fill="#fff"/>
      <path id="Path-34" data-name="Path" d="M5.96,11.665l-.276.844H4.772l.735.543-.288.84.74-.5.72.5-.258-.84.691-.543H6.248Z" fill="#fff"/>
      <path id="Path-35" data-name="Path" d="M1.359,13.052l.691-.543h-.6q-.2.5-.375,1.005l.542.378-.258-.84Z" fill="#fff"/>
      <path id="Path-36" data-name="Path" d="M3.432,13.841l-.276.843H2.245l.735.543-.288.839.74-.5.72.5-.258-.839.691-.543H3.721Z" fill="#fff"/>
      <path id="Path-37" data-name="Path" d="M8.49,13.841l-.276.843H7.3l.735.543-.288.84.74-.5.72.5-.259-.84.691-.543H8.778Z" fill="#fff"/>
      <path id="Path-38" data-name="Path" d="M13.551,13.841l-.276.843h-.912l.735.543-.288.84.74-.5.72.5-.258-.84.691-.543h-.864Z" fill="#fff"/>
      <path id="Path-39" data-name="Path" d="M18.611,13.841l-.276.843h-.912l.735.543-.289.839.741-.5.72.5-.259-.839.691-.543H18.9Z" fill="#fff"/>
      <path id="Path-40" data-name="Path" d="M16.369,16.845,16.081,16l-.276.844h-.912l.735.543-.288.84.74-.5.72.5-.259-.84.691-.543Z" fill="#fff"/>
      <path id="Path-41" data-name="Path" d="M11.308,16.845,11.019,16l-.276.844H9.831l.735.543-.288.84.74-.5.72.5-.258-.84.691-.543Z" fill="#fff"/>
      <path id="Path-42" data-name="Path" d="M6.248,16.845,5.96,16l-.276.844H4.772l.735.543-.288.84.74-.5.72.5-.258-.84.691-.543Z" fill="#fff"/>
      <path id="Path-43" data-name="Path" d="M.156,18.228l.74-.5.72.5-.258-.84.691-.543H1.185L.9,16l-.276.844H.248q-.028.178-.054.358l.251.185-.288.84Z" fill="#fff"/>
      <path id="Path-44" data-name="Path" d="M3.721,19.017l-.289-.843-.276.843H2.245l.735.543-.288.839.74-.5.72.5-.258-.839.691-.543Z" fill="#fff"/>
      <path id="Path-45" data-name="Path" d="M8.778,19.017l-.288-.843-.276.843H7.3l.735.543-.288.839.74-.5.72.5-.259-.839.691-.543Z" fill="#fff"/>
      <path id="Path-46" data-name="Path" d="M13.839,19.017l-.289-.843-.276.843h-.912l.735.543-.288.839.74-.5.72.5-.258-.839.691-.543Z" fill="#fff"/>
      <path id="Path-47" data-name="Path" d="M18.9,19.017l-.288-.843-.276.843h-.912l.735.543-.289.839.741-.5.72.5-.259-.839.691-.543Z" fill="#fff"/>
    </g>
  </g>
</svg>
