<svg xmlns="http://www.w3.org/2000/svg" width="157.255" height="63.697" viewBox="0 0 157.255 63.697">
  <g id="Grupo_214" data-name="Grupo 214" transform="translate(3666.687 5231.491)">
    <g id="Grupo_212" data-name="Grupo 212" transform="translate(-3594.705 -5202.86)">
      <path id="Caminho_381" data-name="Caminho 381" d="M-3317.976-5097.807h5.749v18.1a9.187,9.187,0,0,1-1.457,5.26,9.155,9.155,0,0,1-4.018,3.282,14.507,14.507,0,0,1-5.875,1.123,14.557,14.557,0,0,1-5.882-1.123,9.108,9.108,0,0,1-4.017-3.282,9.217,9.217,0,0,1-1.45-5.26v-18.1h5.789v17.9a4.16,4.16,0,0,0,1.584,3.448,6.2,6.2,0,0,0,3.977,1.256,6.26,6.26,0,0,0,4.017-1.256,4.16,4.16,0,0,0,1.584-3.448Z" transform="translate(3334.926 5098.182)" fill="#f4f4f4"/>
      <path id="Caminho_382" data-name="Caminho 382" d="M-3196.71-5091.285a3.375,3.375,0,0,0-1.384-2.513,5.461,5.461,0,0,0-3.3-.9,5.288,5.288,0,0,0-3.262.869,2.655,2.655,0,0,0-1.136,2.192,2.373,2.373,0,0,0,1.263,2.226,10.988,10.988,0,0,0,3.068,1.169l2.46.588a16.068,16.068,0,0,1,4.231,1.551,8.1,8.1,0,0,1,2.915,2.613,6.853,6.853,0,0,1,1.063,3.884,7.281,7.281,0,0,1-2.814,5.982q-2.8,2.225-7.813,2.226a12.755,12.755,0,0,1-7.954-2.272,8.2,8.2,0,0,1-3.075-6.71h5.6a3.9,3.9,0,0,0,1.624,3.095,6.352,6.352,0,0,0,3.736,1.036,5.968,5.968,0,0,0,3.522-.936,2.9,2.9,0,0,0,1.33-2.433,2.407,2.407,0,0,0-1.216-2.139,11.906,11.906,0,0,0-3.436-1.284l-2.981-.748a12.317,12.317,0,0,1-5.468-2.633,6.136,6.136,0,0,1-1.992-4.826,7.182,7.182,0,0,1,1.33-4.352,8.8,8.8,0,0,1,3.7-2.9,13.145,13.145,0,0,1,5.347-1.036,12.693,12.693,0,0,1,5.327,1.043,8.423,8.423,0,0,1,3.549,2.9,7.67,7.67,0,0,1,1.31,4.3Z" transform="translate(3239.019 5099.533)" fill="#f4f4f4"/>
      <path id="Caminho_383" data-name="Caminho 383" d="M-3085.063-5070.43h-9.7v-27.377h9.786a14.6,14.6,0,0,1,7.118,1.637,11.125,11.125,0,0,1,4.591,4.7,15.589,15.589,0,0,1,1.6,7.326,15.655,15.655,0,0,1-1.611,7.352,11.173,11.173,0,0,1-4.612,4.719A14.723,14.723,0,0,1-3085.063-5070.43Zm-3.917-4.959h3.676a7.747,7.747,0,0,0,5.862-2.086q2-2.085,2-6.67,0-4.559-2-6.631a7.76,7.76,0,0,0-5.849-2.072h-3.689Z" transform="translate(3146.875 5098.182)" fill="#f4f4f4"/>
      <path id="Caminho_384" data-name="Caminho 384" d="M-2962.8-5097.807v27.377h-5.788v-27.377Z" transform="translate(3048.074 5098.182)" fill="#f4f4f4"/>
    </g>
    <g id="Grupo_213" data-name="Grupo 213" transform="translate(-3666.687 -5231.491)">
      <path id="Caminho_385" data-name="Caminho 385" d="M-3554.509-5138.651v14.108a8.459,8.459,0,0,1-8.449,8.449,8.459,8.459,0,0,1-8.449-8.449v-14.108Z" transform="translate(3592.08 5158.795)" fill="#efef18"/>
      <path id="Caminho_386" data-name="Caminho 386" d="M-3608.441-5133.626v33.5a5.026,5.026,0,0,1-5.025,5.025h-48.2a5.024,5.024,0,0,1-5.023-5.025v-33.5a5.024,5.024,0,0,1,5.023-5.025h3.927v14.108a20.116,20.116,0,0,0,5.908,14.264,20.117,20.117,0,0,0,14.264,5.908,20.172,20.172,0,0,0,20.172-20.172v-14.108h3.927A5.026,5.026,0,0,1-3608.441-5133.626Z" transform="translate(3666.687 5158.795)" fill="#efef18"/>
      <path id="Caminho_387" data-name="Caminho 387" d="M-3585.094-5138.651v14.108a20.172,20.172,0,0,1-20.172,20.172,20.117,20.117,0,0,1-14.264-5.908,20.116,20.116,0,0,1-5.908-14.264v-14.108h11.723v14.108a8.459,8.459,0,0,0,8.449,8.449,8.459,8.459,0,0,0,8.449-8.449v-14.108Z" transform="translate(3634.387 5158.795)" fill="#161616"/>
      <path id="Caminho_388" data-name="Caminho 388" d="M-3585.094-5211.348h-11.723a8.452,8.452,0,0,0-8.449-8.418,8.454,8.454,0,0,0-8.449,8.418h-11.723a20.191,20.191,0,0,1,20.172-20.144A20.191,20.191,0,0,1-3585.094-5211.348Z" transform="translate(3634.387 5231.491)" fill="#f4f4f4"/>
    </g>
  </g>
</svg>
