<svg xmlns="http://www.w3.org/2000/svg" width="235.13" height="287.079" viewBox="0 0 235.13 287.079">
  <g id="Logo" transform="translate(2309.096 3813.433)">
    <path id="Path" d="M-2162.476-3692.568a24.7,24.7,0,0,0,24.67,24.671,24.7,24.7,0,0,0,24.67-24.671v-28.026h-49.341Z" transform="translate(-53.726 -34.019)" fill="#efef18"/>
    <path id="Path-2" data-name="Path" d="M-2102.352-3720.594h-11.467v28.026a58.9,58.9,0,0,1-58.9,58.9h0a58.9,58.9,0,0,1-58.9-58.9v-28.026h-11.467a14.671,14.671,0,0,0-14.671,14.671v84.665a14.671,14.671,0,0,0,14.671,14.672h140.741a14.671,14.671,0,0,0,14.672-14.672v-84.665A14.671,14.671,0,0,0-2102.352-3720.594Z" transform="translate(-18.809 -34.019)" fill="#efef18"/>
    <path id="Path-3" data-name="Path" d="M-2182.227-3754.613h.084a24.615,24.615,0,0,1,24.586-24.586,24.615,24.615,0,0,1,24.586,24.586h34.234a58.887,58.887,0,0,0-58.82-58.82,58.887,58.887,0,0,0-58.82,58.82h34.149Z" transform="translate(-33.975 0)" fill="#f4f4f4"/>
    <path id="Path-4" data-name="Path" d="M-2262.357-3481.159h15.85v49.91a25.323,25.323,0,0,1-4.018,14.5,25.243,25.243,0,0,1-11.076,9.049,40,40,0,0,1-16.2,3.1,40.132,40.132,0,0,1-16.218-3.1,25.106,25.106,0,0,1-11.077-9.049,25.407,25.407,0,0,1-4-14.5v-49.91h15.961v49.356a11.473,11.473,0,0,0,4.367,9.509,17.09,17.09,0,0,0,10.966,3.466,17.266,17.266,0,0,0,11.077-3.466,11.471,11.471,0,0,0,4.368-9.509Z" transform="translate(0 -121.755)" fill="#f4f4f4"/>
    <path id="Path-5" data-name="Path" d="M-2150.053-3460.045a9.3,9.3,0,0,0-3.815-6.929q-3.373-2.471-9.086-2.47-5.861,0-8.994,2.395a7.321,7.321,0,0,0-3.133,6.046,6.541,6.541,0,0,0,3.483,6.137,30.267,30.267,0,0,0,8.459,3.224l6.782,1.623a44.337,44.337,0,0,1,11.667,4.275,22.343,22.343,0,0,1,8.036,7.206,18.9,18.9,0,0,1,2.93,10.709q-.037,10.358-7.759,16.494t-21.545,6.137q-13.749,0-21.932-6.267t-8.478-18.5h15.445a10.745,10.745,0,0,0,4.479,8.534,17.515,17.515,0,0,0,10.3,2.857q6.081,0,9.713-2.58a7.986,7.986,0,0,0,3.667-6.708,6.642,6.642,0,0,0-3.354-5.9,32.822,32.822,0,0,0-9.472-3.539l-8.221-2.063q-9.547-2.286-15.075-7.262t-5.493-13.306a19.786,19.786,0,0,1,3.668-12,24.275,24.275,0,0,1,10.192-8,36.242,36.242,0,0,1,14.744-2.857,35,35,0,0,1,14.689,2.876,23.22,23.22,0,0,1,9.787,8,21.154,21.154,0,0,1,3.613,11.869Z" transform="translate(-42.379 -121.158)" fill="#f4f4f4"/>
    <path id="Path-6" data-name="Path" d="M-2055.558-3405.669h-26.761v-75.49h26.982q11.389,0,19.628,4.516a30.664,30.664,0,0,1,12.661,12.957q4.424,8.439,4.424,20.2,0,11.8-4.442,20.274a30.8,30.8,0,0,1-12.716,13.011Q-2044.058-3405.669-2055.558-3405.669Zm-10.8-13.675h10.136q10.652,0,16.164-5.751t5.511-18.393q0-12.569-5.511-18.282t-16.127-5.713h-10.173Z" transform="translate(-83.096 -121.755)" fill="#f4f4f4"/>
    <path id="Path-7" data-name="Path" d="M-1947.21-3481.159v75.49h-15.961v-75.49Z" transform="translate(-126.756 -121.755)" fill="#f4f4f4"/>
  </g>
</svg>
